HIERARCHY
ROOT mixamorig:Hips
{
	OFFSET 0.000000 104.274902 0.000000
	CHANNELS 6 Xposition Yposition Zposition Xrotation Yrotation Zrotation
	JOINT mixamorig:Spine
	{
		OFFSET 0.000000 10.181549 0.131524
		CHANNELS 6 Xposition Yposition Zposition Xrotation Yrotation Zrotation
		JOINT mixamorig:Spine1
		{
			OFFSET 0.000000 9.893990 -1.470706
			CHANNELS 3 Xrotation Yrotation Zrotation
			JOINT mixamorig:Spine2
			{
				OFFSET 0.000000 9.220787 -1.370637
				CHANNELS 3 Xrotation Yrotation Zrotation
				JOINT mixamorig:Neck
				{
					OFFSET 0.000000 16.740372 -2.049022
					CHANNELS 6 Xposition Yposition Zposition Xrotation Yrotation Zrotation
					JOINT mixamorig:Head
					{
						OFFSET 0.000000 9.617859 1.684976
						CHANNELS 6 Xposition Yposition Zposition Xrotation Yrotation Zrotation
						JOINT mixamorig:HeadTop_End
						{
							OFFSET 0.000000 22.037384 7.501072
							CHANNELS 6 Xposition Yposition Zposition Xrotation Yrotation Zrotation
							End Site
							{
								OFFSET 0.000000 23.106567 -2.828246
							}
						}
					}
				}
				JOINT mixamorig:RightShoulder
				{
					OFFSET -4.570000 11.014877 -2.160840
					CHANNELS 6 Xposition Yposition Zposition Xrotation Yrotation Zrotation
					JOINT mixamorig:RightArm
					{
						OFFSET -10.592867 -0.524796 -2.232105
						CHANNELS 3 Xrotation Yrotation Zrotation
						JOINT mixamorig:RightForeArm
						{
							OFFSET -27.841497 0.000000 -0.000002
							CHANNELS 3 Xrotation Yrotation Zrotation
							JOINT mixamorig:RightHand
							{
								OFFSET -28.328812 0.000000 -0.000001
								CHANNELS 3 Xrotation Yrotation Zrotation
								JOINT mixamorig:RightHandThumb1
								{
									OFFSET -2.464798 -1.573990 2.681911
									CHANNELS 6 Xposition Yposition Zposition Xrotation Yrotation Zrotation
									JOINT mixamorig:RightHandThumb2
									{
										OFFSET -3.244781 -1.873383 1.873376
										CHANNELS 3 Xrotation Yrotation Zrotation
										JOINT mixamorig:RightHandThumb3
										{
											OFFSET -2.646263 -1.527817 1.527818
											CHANNELS 6 Xposition Yposition Zposition Xrotation Yrotation Zrotation
											JOINT mixamorig:RightHandThumb4
											{
												OFFSET -1.994591 -1.151581 1.151575
												CHANNELS 6 Xposition Yposition Zposition Xrotation Yrotation Zrotation
												End Site
												{
													OFFSET -1.860176 -1.142715 1.365483
												}
											}
										}
									}
								}
								JOINT mixamorig:RightHandIndex1
								{
									OFFSET -9.108299 -0.517883 2.259803
									CHANNELS 6 Xposition Yposition Zposition Xrotation Yrotation Zrotation
									JOINT mixamorig:RightHandIndex2
									{
										OFFSET -3.699997 0.000000 0.000000
										CHANNELS 3 Xrotation Yrotation Zrotation
										JOINT mixamorig:RightHandIndex3
										{
											OFFSET -2.850006 0.000000 0.000000
											CHANNELS 3 Xrotation Yrotation Zrotation
											JOINT mixamorig:RightHandIndex4
											{
												OFFSET -2.772194 0.000000 0.000000
												CHANNELS 3 Xrotation Yrotation Zrotation
												End Site
												{
													OFFSET -2.772202 0.000000 -0.000484
												}
											}
										}
									}
								}
								JOINT mixamorig:RightHandMiddle1
								{
									OFFSET -9.532501 0.000000 -0.000000
									CHANNELS 6 Xposition Yposition Zposition Xrotation Yrotation Zrotation
									JOINT mixamorig:RightHandMiddle2
									{
										OFFSET -3.699997 0.000000 0.000000
										CHANNELS 3 Xrotation Yrotation Zrotation
										JOINT mixamorig:RightHandMiddle3
										{
											OFFSET -2.949997 0.000000 0.000000
											CHANNELS 3 Xrotation Yrotation Zrotation
											JOINT mixamorig:RightHandMiddle4
											{
												OFFSET -2.946594 0.000000 0.000000
												CHANNELS 3 Xrotation Yrotation Zrotation
												End Site
												{
													OFFSET -2.946602 0.000000 -0.000982
												}
											}
										}
									}
								}
								JOINT mixamorig:RightHandRing1
								{
									OFFSET -9.103600 -0.043106 -1.865100
									CHANNELS 6 Xposition Yposition Zposition Xrotation Yrotation Zrotation
									JOINT mixamorig:RightHandRing2
									{
										OFFSET -3.379303 0.000000 0.000000
										CHANNELS 3 Xrotation Yrotation Zrotation
										JOINT mixamorig:RightHandRing3
										{
											OFFSET -2.889694 0.000000 0.000000
											CHANNELS 3 Xrotation Yrotation Zrotation
											JOINT mixamorig:RightHandRing4
											{
												OFFSET -2.638802 0.000000 0.000000
												CHANNELS 3 Xrotation Yrotation Zrotation
												End Site
												{
													OFFSET -2.638802 0.000000 0.004218
												}
											}
										}
									}
								}
								JOINT mixamorig:RightHandPinky1
								{
									OFFSET -8.076698 -0.486725 -3.806299
									CHANNELS 6 Xposition Yposition Zposition Xrotation Yrotation Zrotation
									JOINT mixamorig:RightHandPinky2
									{
										OFFSET -3.600006 0.000000 0.000000
										CHANNELS 3 Xrotation Yrotation Zrotation
										JOINT mixamorig:RightHandPinky3
										{
											OFFSET -2.099998 0.000000 0.000000
											CHANNELS 3 Xrotation Yrotation Zrotation
											JOINT mixamorig:RightHandPinky4
											{
												OFFSET -2.115791 0.000000 0.000000
												CHANNELS 3 Xrotation Yrotation Zrotation
												End Site
												{
													OFFSET -2.115799 0.000000 0.000174
												}
											}
										}
									}
								}
							}
						}
					}
				}
				JOINT mixamorig:LeftShoulder
				{
					OFFSET 4.570400 11.014679 -2.160816
					CHANNELS 6 Xposition Yposition Zposition Xrotation Yrotation Zrotation
					JOINT mixamorig:LeftArm
					{
						OFFSET 10.592373 -0.524597 -2.232116
						CHANNELS 3 Xrotation Yrotation Zrotation
						JOINT mixamorig:LeftForeArm
						{
							OFFSET 27.841488 0.000000 0.000001
							CHANNELS 3 Xrotation Yrotation Zrotation
							JOINT mixamorig:LeftHand
							{
								OFFSET 28.328808 0.000000 -0.000000
								CHANNELS 3 Xrotation Yrotation Zrotation
								JOINT mixamorig:LeftHandThumb1
								{
									OFFSET 2.466103 -1.576202 2.681698
									CHANNELS 6 Xposition Yposition Zposition Xrotation Yrotation Zrotation
									JOINT mixamorig:LeftHandThumb2
									{
										OFFSET 3.243317 -1.872528 1.872530
										CHANNELS 3 Xrotation Yrotation Zrotation
										JOINT mixamorig:LeftHandThumb3
										{
											OFFSET 2.647881 -1.528763 1.528754
											CHANNELS 6 Xposition Yposition Zposition Xrotation Yrotation Zrotation
											JOINT mixamorig:LeftHandThumb4
											{
												OFFSET 1.998924 -1.154083 1.154080
												CHANNELS 6 Xposition Yposition Zposition Xrotation Yrotation Zrotation
												End Site
												{
													OFFSET 1.884041 -1.149155 1.337651
												}
											}
										}
									}
								}
								JOINT mixamorig:LeftHandIndex1
								{
									OFFSET 9.109299 -0.518005 2.259900
									CHANNELS 6 Xposition Yposition Zposition Xrotation Yrotation Zrotation
									JOINT mixamorig:LeftHandIndex2
									{
										OFFSET 3.699997 0.000000 0.000000
										CHANNELS 3 Xrotation Yrotation Zrotation
										JOINT mixamorig:LeftHandIndex3
										{
											OFFSET 2.850006 0.000000 0.000000
											CHANNELS 3 Xrotation Yrotation Zrotation
											JOINT mixamorig:LeftHandIndex4
											{
												OFFSET 2.774895 0.000000 0.000000
												CHANNELS 3 Xrotation Yrotation Zrotation
												End Site
												{
													OFFSET 2.774902 0.000000 -0.000072
												}
											}
										}
									}
								}
								JOINT mixamorig:LeftHandMiddle1
								{
									OFFSET 9.533401 0.000000 0.000000
									CHANNELS 6 Xposition Yposition Zposition Xrotation Yrotation Zrotation
									JOINT mixamorig:LeftHandMiddle2
									{
										OFFSET 3.699997 0.000000 0.000000
										CHANNELS 3 Xrotation Yrotation Zrotation
										JOINT mixamorig:LeftHandMiddle3
										{
											OFFSET 2.949997 0.000000 0.000000
											CHANNELS 3 Xrotation Yrotation Zrotation
											JOINT mixamorig:LeftHandMiddle4
											{
												OFFSET 2.952896 0.000000 0.000000
												CHANNELS 3 Xrotation Yrotation Zrotation
												End Site
												{
													OFFSET 2.952904 0.000000 0.000165
												}
											}
										}
									}
								}
								JOINT mixamorig:LeftHandRing1
								{
									OFFSET 9.104500 -0.042999 -1.865101
									CHANNELS 6 Xposition Yposition Zposition Xrotation Yrotation Zrotation
									JOINT mixamorig:LeftHandRing2
									{
										OFFSET 3.149994 0.000000 0.000000
										CHANNELS 3 Xrotation Yrotation Zrotation
										JOINT mixamorig:LeftHandRing3
										{
											OFFSET 2.950005 0.000000 0.000000
											CHANNELS 3 Xrotation Yrotation Zrotation
											JOINT mixamorig:LeftHandRing4
											{
												OFFSET 2.644302 0.000000 0.000000
												CHANNELS 3 Xrotation Yrotation Zrotation
												End Site
												{
													OFFSET 2.644302 0.000000 0.000083
												}
											}
										}
									}
								}
								JOINT mixamorig:LeftHandPinky1
								{
									OFFSET 8.077805 -0.486893 -3.806302
									CHANNELS 6 Xposition Yposition Zposition Xrotation Yrotation Zrotation
									JOINT mixamorig:LeftHandPinky2
									{
										OFFSET 3.600006 0.000000 0.000000
										CHANNELS 3 Xrotation Yrotation Zrotation
										JOINT mixamorig:LeftHandPinky3
										{
											OFFSET 2.099998 0.000000 0.000000
											CHANNELS 3 Xrotation Yrotation Zrotation
											JOINT mixamorig:LeftHandPinky4
											{
												OFFSET 2.125496 0.000000 0.000000
												CHANNELS 3 Xrotation Yrotation Zrotation
												End Site
												{
													OFFSET 2.125504 0.000000 -0.001254
												}
											}
										}
									}
								}
							}
						}
					}
				}
			}
		}
	}
	JOINT mixamorig:RightUpLeg
	{
		OFFSET -8.207800 -6.751701 -1.599544
		CHANNELS 6 Xposition Yposition Zposition Xrotation Yrotation Zrotation
		JOINT mixamorig:RightLeg
		{
			OFFSET 0.000004 -44.370152 0.345934
			CHANNELS 3 Xrotation Yrotation Zrotation
			JOINT mixamorig:RightFoot
			{
				OFFSET 0.000004 -44.423664 -3.043535
				CHANNELS 3 Xrotation Yrotation Zrotation
				JOINT mixamorig:RightToeBase
				{
					OFFSET 0.000001 -8.728691 10.710592
					CHANNELS 3 Xrotation Yrotation Zrotation
					JOINT mixamorig:RightToe_End
					{
						OFFSET 0.000000 -0.000665 9.278101
						CHANNELS 3 Xrotation Yrotation Zrotation
						End Site
						{
							OFFSET 0.000000 -0.000665 9.278103
						}
					}
				}
			}
		}
	}
	JOINT mixamorig:LeftUpLeg
	{
		OFFSET 8.207800 -6.751701 -1.599544
		CHANNELS 6 Xposition Yposition Zposition Xrotation Yrotation Zrotation
		JOINT mixamorig:LeftLeg
		{
			OFFSET 0.000004 -44.370037 0.346940
			CHANNELS 3 Xrotation Yrotation Zrotation
			JOINT mixamorig:LeftFoot
			{
				OFFSET 0.000004 -44.423611 -3.044388
				CHANNELS 3 Xrotation Yrotation Zrotation
				JOINT mixamorig:LeftToeBase
				{
					OFFSET 0.000001 -8.728690 10.710592
					CHANNELS 3 Xrotation Yrotation Zrotation
					JOINT mixamorig:LeftToe_End
					{
						OFFSET 0.000000 -0.000680 9.278101
						CHANNELS 3 Xrotation Yrotation Zrotation
						End Site
						{
							OFFSET 0.000000 -0.000680 9.278101
						}
					}
				}
			}
		}
	}
}
MOTION
Frames: 4
Frame Time: 0.033333
72.053459 89.791336 0.448048 9.438171 51.604009 -14.118407 -0.000003 10.181558 0.131530 13.849406 -4.655436 9.336437 4.098848 -1.781440 1.928415 4.104709 -1.797061 1.899007 -0.000009 16.740377 -2.049020 6.143107 -0.775966 1.030242 0.000001 9.617849 1.684969 5.445475 -3.033214 1.081711 -0.000008 22.037369 7.501083 0.000002 0.000001 0.000000 -4.570007 11.014872 -2.160839 1.323508 1.653312 8.935763 -38.395577 32.932068 61.823949 0.000185 113.486230 -0.000110 18.300758 32.882897 -13.574071 -2.464809 -1.573998 2.681912 -13.347929 -4.257366 8.681678 13.913695 -30.738829 1.911572 -2.646277 -1.527799 1.527819 16.318399 -41.323457 -0.684328 -1.994606 -1.151600 1.151572 0.000004 -0.000003 -0.000000 -9.108297 -0.517871 2.259808 15.167881 -19.208058 42.384790 6.629859 -6.940977 87.367299 1.264894 -4.003792 35.053320 -0.000001 -0.000001 0.000000 -9.532500 0.000004 0.000003 17.138401 -12.100276 66.177191 6.205784 -6.908643 83.851111 0.870952 -3.374463 28.936257 -0.000001 0.000000 0.000003 -9.103612 -0.043110 -1.865096 15.512379 -9.814640 73.325940 4.772701 -6.600459 71.711659 3.792037 -6.193157 62.926833 -0.000001 0.000002 0.000002 -8.076726 -0.486717 -3.806294 10.826004 -8.120439 75.991565 4.657784 -6.561618 70.709028 2.042599 -4.926678 45.017329 -0.000001 0.000001 0.000005 4.570392 11.014677 -2.160818 1.108270 -3.985878 -9.811789 40.139960 -59.899017 4.102728 -0.000007 -93.816097 -0.000151 -27.985764 -14.525601 -32.255070 2.466097 -1.576197 2.681702 3.093415 14.064541 13.149226 5.672584 15.468241 -0.672902 2.647904 -1.528786 1.528766 -1.760786 -2.614683 3.301715 1.998918 -1.154084 1.154096 0.000002 0.000003 -0.000004 9.109286 -0.518017 2.259905 0.029611 1.051003 -15.607115 0.431544 2.403764 -20.355302 0.000156 -0.046360 0.384177 -0.000000 0.000000 0.000000 9.533397 0.000008 -0.000003 0.064836 1.533225 -22.578850 0.431542 2.403683 -20.354771 0.019636 0.520982 -4.321130 0.000000 -0.000000 0.000001 9.104494 -0.042997 -1.865100 0.674591 2.981464 -26.877214 1.096448 3.733045 -32.727517 0.203320 1.664286 -13.931368 -0.000001 0.000000 -0.000000 8.077789 -0.486896 -3.806294 1.306114 5.335616 -16.635988 1.242299 -0.134131 -35.123681 0.292347 1.988890 -16.723498 -0.000000 0.000000 -0.000002 -8.207802 -6.751718 -1.599534 -37.285268 -6.684632 6.562303 58.322541 -5.100689 7.292134 -26.508171 2.095828 -6.669365 -0.602065 -0.000009 -0.000002 0.000000 -0.000000 0.000000 8.207800 -6.751699 -1.599539 -10.264213 12.513901 -6.051439 60.064622 2.549177 -8.686734 1.632220 0.055220 -3.302950 -26.375940 0.000010 -0.000018 -0.000003 -0.000000 0.000002 
73.293121 89.992638 0.608229 9.583256 50.391100 -14.071589 -0.000001 10.181557 0.131519 13.821477 -4.077669 9.351052 4.111251 -1.622638 1.989027 4.117169 -1.637803 1.962134 0.000002 16.740366 -2.049026 5.929864 -0.723242 0.945877 -0.000008 9.617854 1.684956 5.850977 -2.899207 1.318555 -0.000001 22.037354 7.501081 -0.000004 -0.000002 0.000002 -4.570000 11.014886 -2.160835 1.476541 2.087686 9.451981 -38.222743 32.632888 62.247291 0.000183 113.435713 -0.000121 16.750540 33.152898 -10.910589 -2.464798 -1.573998 2.681889 -13.347928 -4.257366 8.681676 13.913699 -30.738829 1.911575 -2.646276 -1.527825 1.527817 16.318408 -41.323454 -0.684332 -1.994575 -1.151587 1.151573 0.000006 -0.000005 -0.000003 -9.108305 -0.517864 2.259784 15.167878 -19.208058 42.384787 6.629858 -6.940978 87.367299 1.264894 -4.003793 35.053323 -0.000001 0.000001 0.000002 -9.532503 0.000002 -0.000020 17.138389 -12.100275 66.177184 6.205784 -6.908644 83.851111 0.870953 -3.374462 28.936257 -0.000000 -0.000000 -0.000000 -9.103597 -0.043092 -1.865113 15.512374 -9.814641 73.325940 4.772700 -6.600459 71.711659 3.792039 -6.193157 62.926833 0.000001 0.000002 0.000004 -8.076713 -0.486721 -3.806320 10.826000 -8.120438 75.991565 4.657786 -6.561616 70.709028 2.042599 -4.926677 45.017329 -0.000002 -0.000000 0.000002 4.570404 11.014690 -2.160809 1.121052 -3.906288 -9.956977 39.627234 -60.627170 2.819984 0.000003 -92.974618 -0.000082 -26.928280 -15.172762 -32.160099 2.466084 -1.576193 2.681698 3.084696 14.029089 13.113167 5.659776 15.419704 -0.662995 2.647883 -1.528764 1.528758 -1.779977 -2.687636 3.314704 1.998907 -1.154065 1.154067 -0.000001 0.000003 -0.000005 9.109286 -0.518012 2.259893 0.027052 1.006231 -14.952495 0.431567 2.403764 -20.355309 0.000146 -0.043684 0.361915 -0.000000 0.000000 0.000000 9.533390 0.000010 -0.000007 0.120974 1.675311 -22.712616 0.458629 2.475410 -20.991036 0.019753 0.522687 -4.335320 0.000000 0.000000 0.000001 9.104493 -0.043004 -1.865106 0.705655 3.043606 -27.107146 1.118441 3.766983 -33.063880 0.203518 1.664970 -13.937352 0.000000 -0.000001 0.000002 8.077788 -0.486881 -3.806307 1.393607 5.517451 -17.114147 1.249553 -0.123872 -35.227729 0.293152 1.991625 -16.747076 0.000000 -0.000000 0.000004 -8.207802 -6.751712 -1.599541 -36.607102 -6.657322 6.099022 57.887274 -3.785931 7.166545 -26.972847 2.118842 -6.679225 -0.756724 0.000003 -0.000000 0.000000 -0.000002 -0.000000 8.207800 -6.751701 -1.599548 -11.349590 12.855648 -5.276381 60.754055 -1.398437 -8.674801 5.254157 0.000550 -6.836769 -26.851282 0.000019 -0.000022 -0.000007 -0.000001 0.000001 
74.412971 90.212074 0.771408 9.674336 49.540817 -13.764228 0.000003 10.181563 0.131530 13.909058 -3.540506 9.236502 4.158129 -1.475553 2.002671 4.163428 -1.491136 1.977946 -0.000001 16.740353 -2.049016 5.771174 -0.671944 0.691295 -0.000003 9.617819 1.684966 6.304642 -3.019015 1.692807 0.000000 22.037399 7.501073 -0.000001 -0.000000 0.000001 -4.570003 11.014864 -2.160833 1.640899 2.494591 10.009109 -37.853537 32.398685 62.553065 0.000178 113.300564 -0.000109 16.489132 33.341603 -9.381076 -2.464796 -1.573984 2.681920 -13.347932 -4.257364 8.681675 13.913697 -30.738833 1.911579 -2.646263 -1.527811 1.527808 16.318405 -41.323457 -0.684336 -1.994589 -1.151592 1.151556 0.000004 0.000000 -0.000004 -9.108309 -0.517898 2.259809 15.167876 -19.208058 42.384794 6.629860 -6.940977 87.367299 1.264895 -4.003793 35.053320 -0.000002 0.000001 0.000001 -9.532503 -0.000013 0.000002 17.138391 -12.100276 66.177184 6.205783 -6.908645 83.851111 0.870951 -3.374462 28.936257 -0.000001 0.000000 -0.000002 -9.103599 -0.043108 -1.865094 15.512370 -9.814639 73.325933 4.772700 -6.600459 71.711659 3.792037 -6.193157 62.926833 -0.000000 -0.000001 0.000003 -8.076717 -0.486729 -3.806295 10.825998 -8.120438 75.991558 4.657786 -6.561616 70.709028 2.042599 -4.926677 45.017333 -0.000003 0.000001 0.000006 4.570404 11.014670 -2.160813 1.139217 -3.787744 -10.169452 38.521154 -61.322709 0.920176 -0.000202 -92.102526 -0.000278 -25.409231 -15.421030 -32.114904 2.466108 -1.576189 2.681686 2.990286 13.901010 13.280557 5.646261 15.368428 -0.652551 2.647871 -1.528763 1.528760 -1.803474 -2.777009 3.330610 1.998928 -1.154070 1.154072 0.000001 0.000002 0.000001 9.109290 -0.518010 2.259900 0.024340 0.937752 -13.875061 0.431571 2.403771 -20.355304 0.000101 -0.034492 0.285789 0.000000 0.000000 0.000000 9.533388 0.000007 -0.000010 0.180982 1.826615 -22.890831 0.498115 2.575900 -21.887264 0.019553 0.519897 -4.312206 0.000000 -0.000000 0.000002 9.104500 -0.043007 -1.865109 0.729762 3.091452 -27.373667 1.144175 3.806112 -33.453348 0.203092 1.663355 -13.923371 -0.000000 -0.000001 0.000002 8.077796 -0.486894 -3.806313 1.509599 5.780874 -17.576431 1.260798 -0.108013 -35.388702 0.293945 1.994251 -16.769981 0.000001 -0.000001 0.000004 -8.207804 -6.751709 -1.599535 -35.928977 -6.703669 5.356618 57.471411 -2.553607 6.997011 -27.392086 2.135337 -6.675619 -0.958210 -0.000005 0.000002 0.000000 -0.000002 -0.000000 8.207799 -6.751705 -1.599538 -13.088539 13.323524 -3.978202 62.310518 -6.713339 -8.755084 8.508087 -0.233067 -10.407721 -24.311261 -0.000021 0.000008 0.000000 -0.000002 -0.000000 
75.372887 90.411079 0.945564 9.871176 49.397673 -13.339039 0.000009 10.181533 0.131521 14.074123 -3.090319 9.038492 4.224574 -1.352361 1.975226 4.229036 -1.368755 1.952270 -0.000000 16.740368 -2.049014 5.608515 -0.667757 0.348326 0.000001 9.617846 1.684983 6.692481 -3.460477 1.961488 0.000006 22.037399 7.501062 -0.000000 -0.000001 -0.000000 -4.570003 11.014884 -2.160839 1.770841 2.779611 10.451773 -37.522341 32.081552 63.069202 0.000168 113.091984 -0.000110 17.577897 33.628419 -9.457117 -2.464828 -1.573981 2.681911 -13.347929 -4.257366 8.681678 13.913694 -30.738829 1.911574 -2.646263 -1.527829 1.527799 16.318415 -41.323454 -0.684329 -1.994578 -1.151595 1.151567 0.000002 -0.000000 -0.000002 -9.108286 -0.517882 2.259804 15.167885 -19.208056 42.384783 6.629860 -6.940978 87.367299 1.264895 -4.003793 35.053323 -0.000002 0.000002 0.000001 -9.532501 0.000007 -0.000008 17.138398 -12.100274 66.177184 6.205782 -6.908645 83.851111 0.870951 -3.374463 28.936260 0.000002 0.000000 0.000001 -9.103616 -0.043103 -1.865101 15.512376 -9.814638 73.325933 4.772700 -6.600459 71.711659 3.792039 -6.193158 62.926833 0.000001 -0.000001 0.000007 -8.076730 -0.486713 -3.806304 10.826004 -8.120438 75.991558 4.657786 -6.561613 70.709028 2.042602 -4.926678 45.017333 -0.000000 -0.000000 0.000004 4.570404 11.014690 -2.160811 1.156532 -3.698503 -10.360680 35.998481 -61.760647 -2.595776 -0.000005 -91.268116 -0.000130 -24.120989 -14.994138 -32.821098 2.466102 -1.576202 2.681703 2.821451 13.682137 13.613806 5.632243 15.315074 -0.641702 2.647878 -1.528740 1.528759 -1.830004 -2.878180 3.348603 1.998914 -1.154084 1.154076 0.000002 0.000001 -0.000002 9.109300 -0.518014 2.259905 0.021271 0.847207 -12.416927 0.431575 2.403742 -20.355301 0.000030 -0.019740 0.163524 0.000000 0.000000 -0.000000 9.533414 0.000003 0.000000 0.238263 1.969297 -23.076004 0.537000 2.670552 -22.736802 0.019045 0.512854 -4.253772 0.000000 -0.000000 0.000004 9.104510 -0.043000 -1.865096 0.742662 3.117159 -27.635143 1.170192 3.845175 -33.843826 0.202330 1.660243 -13.896941 0.000000 0.000000 0.000001 8.077809 -0.486899 -3.806299 1.639624 6.093386 -17.947972 1.274068 -0.089374 -35.578288 0.294642 1.996488 -16.789370 0.000000 0.000000 -0.000003 -8.207793 -6.751725 -1.599540 -35.355108 -6.882797 4.286593 57.199003 -1.647154 6.832648 -27.849495 2.126886 -6.583467 -1.142573 0.000007 -0.000000 0.000000 -0.000000 -0.000000 8.207808 -6.751705 -1.599547 -15.733023 13.743831 -2.099742 65.637305 -9.551894 -8.764165 10.330378 -2.357160 -11.767734 -15.466466 -0.000006 -0.000007 0.000000 -0.000001 0.000001 
